Coordinates
version=1
nRows=4
nColumns=114
inDegrees=yes

Units are S.I. units (second, meters, Newtons, ...)
If the header above contains a line with 'inDegrees', this indicates whether rotational values are in degrees (yes) or radians (no).

endheader 
time	pelvis_tilt	pelvis_list	pelvis_rotation	pelvis_tx	pelvis_ty	pelvis_tz	hip_flexion_l	hip_adduction_l	hip_rotation_l	hip_flexion_r	hip_adduction_r	hip_rotation_r	knee_angle_l	knee_angle_r	ankle_angle_l	ankle_angle_r	subtalar_angle_l	subtalar_angle_r	mtp_angle_l	mtp_angle_r	lumbar_extension	lumbar_bending	lumbar_rotation	arm_flex_l	arm_add_l	arm_rot_l	arm_flex_r	arm_add_r	arm_rot_r	elbow_flex_l	elbow_flex_r	pro_sup_l	pro_sup_r	addbrev_l/activation	addlong_l/activation	addmagDist_l/activation	addmagIsch_l/activation	addmagMid_l/activation	addmagProx_l/activation	bflh_l/activation	bfsh_l/activation	edl_l/activation	ehl_l/activation	fdl_l/activation	fhl_l/activation	gaslat_l/activation	gasmed_l/activation	glmax1_l/activation	glmax2_l/activation	glmax3_l/activation	glmed1_l/activation	glmed2_l/activation	glmed3_l/activation	glmin1_l/activation	glmin2_l/activation	glmin3_l/activation	grac_l/activation	iliacus_l/activation	perbrev_l/activation	perlong_l/activation	piri_l/activation	psoas_l/activation	recfem_l/activation	sart_l/activation	semimem_l/activation	semiten_l/activation	soleus_l/activation	tfl_l/activation	tibant_l/activation	tibpost_l/activation	vasint_l/activation	vaslat_l/activation	vasmed_l/activation	addbrev_r/activation	addlong_r/activation	addmagDist_r/activation	addmagIsch_r/activation	addmagMid_r/activation	addmagProx_r/activation	bflh_r/activation	bfsh_r/activation	edl_r/activation	ehl_r/activation	fdl_r/activation	fhl_r/activation	gaslat_r/activation	gasmed_r/activation	glmax1_r/activation	glmax2_r/activation	glmax3_r/activation	glmed1_r/activation	glmed2_r/activation	glmed3_r/activation	glmin1_r/activation	glmin2_r/activation	glmin3_r/activation	grac_r/activation	iliacus_r/activation	perbrev_r/activation	perlong_r/activation	piri_r/activation	psoas_r/activation	recfem_r/activation	sart_r/activation	semimem_r/activation	semiten_r/activation	soleus_r/activation	tfl_r/activation	tibant_r/activation	tibpost_r/activation	vasint_r/activation	vaslat_r/activation	vasmed_r/activation	
          0.37000000	          4.55478979	        -11.63687757	        -10.02291854	          1.58283615	          0.86665963	          0.39813341	        -28.38426020	        -18.86131928	        -11.34631346	         32.68013153	          3.68260071	         -9.33356374	         36.09181599	         45.72117941	          8.30896538	          2.90454534	        -15.38429355	        -23.75174874	        -23.12403794	         -3.79431446	        -14.06229931	         12.44360242	         -7.57366988	          3.98617127	        -16.12353288	         42.03044941	         -3.85047536	        -17.54883563	         14.89187024	         28.07963527	         24.85133918	         69.87049084	         68.71393665	          0.02251212	          0.09526416	          0.01302742	          0.01405057	          0.01400946	          0.01102159	          0.01056406	          0.03888847	          0.06941771	          0.05695498	          0.04247317	          0.03853386	          0.04608895	          0.06027378	          0.01058219	          0.01039439	          0.01017795	          0.01475867	          0.01043798	          0.01031476	          0.04640575	          0.01057440	          0.01606109	          0.01207591	          0.67050073	          0.05583604	          0.05127240	          0.01596881	          0.10365693	          0.06079401	          0.13413492	          0.01239231	          0.01102261	          0.08964386	          0.01143672	          0.08929991	          0.04428335	          0.04798312	          0.04917344	          0.04657212	          0.02890651	          0.03569365	          0.03779680	          0.02990135	          0.03511540	          0.04041338	          0.07154387	          0.06762944	          0.18241809	          0.12670417	          0.02961307	          0.01475995	          0.03738160	          0.03175631	          0.07027999	          0.07341738	          0.06786737	          0.09499944	          0.04115337	          0.05602773	          0.05928700	          0.05371052	          0.04830470	          0.03840299	          0.17577560	          0.14578483	          0.13109454	          0.12662804	          0.23920923	          0.24903970	          0.14227888	          0.02812796	          0.03574675	          0.02006026	          0.10677121	          0.30007428	          0.01127296	          0.05318514	          0.07153494	          0.05630875	
          0.38000000	          4.39776544	        -11.64192779	        -10.00501360	          1.58841433	          0.86469422	          0.40275540	        -28.01610865	        -19.33490721	        -10.93440835	         33.25634772	          4.01656459	         -8.80678381	         37.28675215	         46.56563271	          8.15221861	          3.83898647	        -15.23425466	        -24.24055850	        -21.78284702	         -3.37022611	        -13.94675162	         12.57342077	         -7.58585771	          4.10031952	        -16.03669760	         42.07876411	         -3.90885422	        -17.62209974	         14.90681623	         28.00927008	         24.99680754	         69.78927911	         68.54976293	          0.02001012	          0.08018279	          0.01179299	          0.01276462	          0.01236594	          0.01087430	          0.01057125	          0.03521112	          0.05849560	          0.04902933	          0.04723272	          0.05360140	          0.03907493	          0.05094846	          0.01080430	          0.01051516	          0.01019311	          0.05219884	          0.01067230	          0.01042572	          0.06156559	          0.01081856	          0.01700920	          0.01174628	          0.56120762	          0.04994320	          0.04434584	          0.01626088	          0.08794657	          0.05103104	          0.13596433	          0.01233117	          0.01094445	          0.09686298	          0.01360420	          0.07477978	          0.06506186	          0.05491201	          0.07376608	          0.05833836	          0.03333461	          0.03270697	          0.03664151	          0.02771063	          0.03783684	          0.04869121	          0.12880438	          0.05830905	          0.15259877	          0.10685249	          0.04914845	          0.03498500	          0.03147215	          0.02654930	          0.06147870	          0.06280484	          0.05908645	          0.07949635	          0.03535271	          0.04875960	          0.05026402	          0.04594795	          0.04206300	          0.03935181	          0.14681717	          0.12194927	          0.10955089	          0.12323165	          0.19959620	          0.24428590	          0.11938929	          0.02431811	          0.03247425	          0.01674702	          0.09353031	          0.25054885	          0.05238803	          0.06329657	          0.12288310	          0.07163078	
          0.39000000	          4.15306475	        -11.67015238	         -9.90522913	          1.59414196	          0.86197218	          0.40731468	        -27.64797023	        -19.88353007	        -10.50180970	         33.76289071	          4.33865647	         -8.56978336	         38.27927886	         47.30638846	          8.04645818	          4.79459394	        -14.95421714	        -24.64347103	        -20.68921685	         -3.01494185	        -13.70937157	         12.76705422	         -7.72921527	          4.13269363	        -15.98126869	         42.12799703	         -3.96776832	        -17.66559484	         15.00777445	         27.97186461	         25.10290601	         69.76980669	         68.46938176	          0.01875263	          0.06827969	          0.01150240	          0.01247205	          0.01167405	          0.01089803	          0.01046143	          0.03143186	          0.05172648	          0.04604752	          0.04678243	          0.04958612	          0.09592398	          0.14219824	          0.01089084	          0.01055006	          0.01020322	          0.04559804	          0.01080691	          0.01049166	          0.05423503	          0.01096462	          0.01919942	          0.01154814	          0.49973480	          0.04336566	          0.03829897	          0.01707800	          0.07585018	          0.04277545	          0.11787510	          0.01174054	          0.01067840	          0.08104544	          0.01370243	          0.07033966	          0.05954785	          0.05480822	          0.06543267	          0.05640690	          0.02905065	          0.02819794	          0.03142883	          0.02396115	          0.03255367	          0.04257424	          0.10794203	          0.05109474	          0.12780029	          0.09025035	          0.05079919	          0.04929392	          0.03779219	          0.02299726	          0.05317176	          0.05334037	          0.04971861	          0.06860289	          0.03820721	          0.05002024	          0.04549370	          0.04814798	          0.05764388	          0.03445728	          0.12287704	          0.10211879	          0.09163730	          0.13348373	          0.16661983	          0.20487181	          0.10082176	          0.02055619	          0.02800238	          0.01569588	          0.08054434	          0.20915316	          0.07623825	          0.07339868	          0.14475340	          0.08788212	
          0.40000000	          3.79648071	        -11.75318376	         -9.77424155	          1.60010779	          0.85856945	          0.41191239	        -27.33719802	        -20.52631013	        -10.15964569	         34.18528514	          4.70810732	         -8.55580426	         39.05634082	         48.05804655	          7.94753959	          5.78204940	        -14.53126586	        -24.98348366	        -20.03330040	         -2.83191683	        -13.31314240	         13.05147900	         -7.96484503	          4.05852834	        -15.90558045	         42.11039890	         -4.00325163	        -17.70190441	         15.16016340	         27.89385799	         25.15993176	         69.75672622	         68.39916369	          0.03182782	          0.10677573	          0.01327551	          0.01435617	          0.01512426	          0.01127747	          0.01065903	          0.08148411	          0.05198410	          0.05055137	          0.04595625	          0.04753410	          0.11097541	          0.14002239	          0.01076435	          0.01046169	          0.01021508	          0.03884735	          0.01072560	          0.01047388	          0.04661669	          0.01093525	          0.02244742	          0.01269591	          0.50930633	          0.04160078	          0.03657715	          0.01837977	          0.07596175	          0.03573491	          0.11209129	          0.01369585	          0.01137496	          0.07214860	          0.01253720	          0.07142623	          0.05468819	          0.04586046	          0.05458755	          0.04714222	          0.02564171	          0.02454338	          0.02889758	          0.02958826	          0.02882668	          0.03764411	          0.10946601	          0.04590135	          0.10744924	          0.07638489	          0.04486891	          0.04226420	          0.03369737	          0.02628653	          0.05783374	          0.09619205	          0.04312900	          0.12831645	          0.09824086	          0.05156917	          0.06215313	          0.07037121	          0.05941667	          0.03150857	          0.10277157	          0.08608026	          0.09177114	          0.18065440	          0.13907620	          0.21164471	          0.08513365	          0.03171173	          0.03093666	          0.04867916	          0.07198174	          0.17456060	          0.06404734	          0.07143169	          0.14964312	          0.08286995	
